G04*
G04 #@! TF.GenerationSoftware,Altium Limited,Altium Designer,20.1.8 (145)*
G04*
G04 Layer_Color=32896*
%FSLAX25Y25*%
%MOIN*%
G70*
G04*
G04 #@! TF.SameCoordinates,5D2BCBBB-68BA-462B-8042-098B58F1E690*
G04*
G04*
G04 #@! TF.FilePolarity,Positive*
G04*
G01*
G75*
G36*
X91188Y52312D02*
Y52235D01*
Y52158D01*
Y52081D01*
Y52004D01*
Y51927D01*
Y51850D01*
Y51773D01*
Y51696D01*
Y51619D01*
Y51542D01*
Y51465D01*
Y51388D01*
Y51311D01*
Y51234D01*
Y51157D01*
Y51080D01*
Y51003D01*
Y50925D01*
Y50848D01*
Y50771D01*
Y50694D01*
Y50617D01*
Y50540D01*
Y50463D01*
Y50386D01*
Y50309D01*
Y50232D01*
Y50155D01*
Y50078D01*
Y50001D01*
Y49924D01*
Y49847D01*
Y49770D01*
Y49693D01*
Y49616D01*
Y49538D01*
Y49461D01*
Y49384D01*
Y49307D01*
Y49230D01*
Y49153D01*
Y49076D01*
Y48999D01*
Y48922D01*
Y48845D01*
Y48768D01*
Y48691D01*
Y48614D01*
Y48537D01*
Y48460D01*
Y48383D01*
Y48306D01*
Y48229D01*
Y48151D01*
Y48074D01*
Y47997D01*
Y47920D01*
Y47843D01*
Y47766D01*
Y47689D01*
Y47612D01*
Y47535D01*
Y47458D01*
Y47381D01*
Y47304D01*
Y47227D01*
Y47150D01*
Y47073D01*
Y46996D01*
Y46919D01*
Y46842D01*
Y46765D01*
Y46687D01*
Y46611D01*
Y46533D01*
Y46456D01*
Y46379D01*
Y46302D01*
Y46225D01*
Y46148D01*
Y46071D01*
Y45994D01*
Y45917D01*
Y45840D01*
Y45763D01*
Y45686D01*
Y45609D01*
Y45532D01*
Y45455D01*
Y45378D01*
Y45300D01*
Y45224D01*
Y45146D01*
Y45069D01*
Y44992D01*
Y44915D01*
Y44838D01*
Y44761D01*
Y44684D01*
Y44607D01*
Y44530D01*
Y44453D01*
Y44376D01*
Y44299D01*
Y44222D01*
Y44145D01*
Y44068D01*
Y43991D01*
Y43914D01*
Y43837D01*
Y43760D01*
Y43682D01*
Y43605D01*
Y43528D01*
Y43451D01*
Y43374D01*
Y43297D01*
Y43220D01*
Y43143D01*
Y43066D01*
Y42989D01*
Y42912D01*
Y42835D01*
Y42758D01*
Y42681D01*
Y42604D01*
Y42527D01*
Y42450D01*
Y42373D01*
Y42296D01*
Y42218D01*
Y42141D01*
Y42064D01*
Y41987D01*
Y41910D01*
Y41833D01*
Y41756D01*
Y41679D01*
Y41602D01*
Y41525D01*
Y41448D01*
Y41371D01*
Y41294D01*
Y41217D01*
Y41140D01*
Y41063D01*
Y40986D01*
Y40909D01*
Y40831D01*
Y40754D01*
Y40677D01*
Y40600D01*
Y40523D01*
Y40446D01*
Y40369D01*
Y40292D01*
Y40215D01*
Y40138D01*
Y40061D01*
Y39984D01*
Y39907D01*
Y39830D01*
Y39753D01*
Y39676D01*
Y39599D01*
Y39522D01*
Y39445D01*
Y39367D01*
Y39290D01*
Y39213D01*
Y39136D01*
Y39059D01*
Y38982D01*
Y38905D01*
Y38828D01*
Y38751D01*
Y38674D01*
Y38597D01*
Y38520D01*
Y38443D01*
Y38366D01*
Y38289D01*
Y38212D01*
Y38135D01*
Y38058D01*
Y37980D01*
Y37903D01*
Y37826D01*
Y37749D01*
Y37672D01*
Y37595D01*
Y37518D01*
Y37441D01*
Y37364D01*
Y37287D01*
Y37210D01*
Y37133D01*
Y37056D01*
Y36979D01*
Y36902D01*
Y36825D01*
Y36748D01*
Y36671D01*
Y36593D01*
Y36516D01*
Y36439D01*
Y36362D01*
Y36285D01*
Y36208D01*
Y36131D01*
Y36054D01*
Y35977D01*
Y35900D01*
Y35823D01*
Y35746D01*
Y35669D01*
Y35592D01*
Y35515D01*
Y35438D01*
Y35361D01*
Y35284D01*
Y35206D01*
Y35129D01*
Y35052D01*
Y34975D01*
Y34898D01*
Y34821D01*
Y34744D01*
Y34667D01*
Y34590D01*
Y34513D01*
Y34436D01*
Y34359D01*
Y34282D01*
Y34205D01*
Y34128D01*
Y34051D01*
Y33974D01*
Y33897D01*
Y33820D01*
Y33742D01*
Y33665D01*
Y33588D01*
Y33511D01*
Y33434D01*
Y33357D01*
Y33280D01*
Y33203D01*
Y33126D01*
Y33049D01*
Y32972D01*
Y32895D01*
Y32818D01*
Y32741D01*
Y32664D01*
Y32587D01*
Y32510D01*
Y32433D01*
Y32355D01*
Y32278D01*
Y32201D01*
Y32124D01*
Y32047D01*
Y31970D01*
Y31893D01*
Y31816D01*
Y31739D01*
Y31662D01*
Y31585D01*
Y31508D01*
Y31431D01*
Y31354D01*
Y31277D01*
Y31200D01*
Y31123D01*
Y31046D01*
Y30969D01*
Y30891D01*
Y30814D01*
Y30737D01*
Y30660D01*
Y30583D01*
Y30506D01*
Y30429D01*
Y30352D01*
Y30275D01*
Y30198D01*
Y30121D01*
Y30044D01*
Y29967D01*
Y29890D01*
Y29813D01*
Y29736D01*
Y29659D01*
Y29582D01*
Y29505D01*
Y29427D01*
Y29350D01*
Y29273D01*
Y29196D01*
Y29119D01*
Y29042D01*
Y28965D01*
Y28888D01*
Y28811D01*
Y28734D01*
Y28657D01*
Y28580D01*
Y28503D01*
Y28426D01*
Y28349D01*
Y28272D01*
Y28195D01*
Y28118D01*
Y28041D01*
Y27964D01*
Y27886D01*
Y27809D01*
Y27732D01*
Y27655D01*
Y27578D01*
Y27501D01*
Y27424D01*
Y27347D01*
Y27270D01*
Y27193D01*
Y27116D01*
Y27039D01*
Y26962D01*
Y26885D01*
Y26808D01*
Y26731D01*
Y26654D01*
Y26577D01*
Y26500D01*
Y26422D01*
Y26345D01*
Y26268D01*
Y26191D01*
Y26114D01*
Y26037D01*
Y25960D01*
Y25883D01*
Y25806D01*
Y25729D01*
Y25652D01*
Y25575D01*
Y25498D01*
Y25421D01*
Y25344D01*
Y25267D01*
Y25190D01*
Y25113D01*
Y25036D01*
Y24958D01*
Y24881D01*
Y24804D01*
Y24727D01*
Y24650D01*
Y24573D01*
Y24496D01*
Y24419D01*
Y24342D01*
Y24265D01*
Y24188D01*
Y24111D01*
Y24034D01*
Y23957D01*
Y23880D01*
Y23803D01*
Y23726D01*
Y23649D01*
Y23571D01*
Y23494D01*
Y23417D01*
Y23340D01*
Y23263D01*
X47036D01*
Y23340D01*
Y23417D01*
Y23494D01*
Y23571D01*
Y23649D01*
Y23726D01*
Y23803D01*
Y23880D01*
Y23957D01*
Y24034D01*
Y24111D01*
Y24188D01*
Y24265D01*
Y24342D01*
Y24419D01*
Y24496D01*
Y24573D01*
Y24650D01*
Y24727D01*
Y24804D01*
Y24881D01*
Y24958D01*
Y25036D01*
Y25113D01*
Y25190D01*
Y25267D01*
Y25344D01*
Y25421D01*
Y25498D01*
Y25575D01*
Y25652D01*
Y25729D01*
Y25806D01*
Y25883D01*
Y25960D01*
Y26037D01*
Y26114D01*
Y26191D01*
Y26268D01*
Y26345D01*
Y26422D01*
Y26500D01*
Y26577D01*
Y26654D01*
Y26731D01*
Y26808D01*
Y26885D01*
Y26962D01*
Y27039D01*
Y27116D01*
Y27193D01*
Y27270D01*
Y27347D01*
Y27424D01*
Y27501D01*
Y27578D01*
Y27655D01*
Y27732D01*
Y27809D01*
Y27886D01*
Y27964D01*
Y28041D01*
Y28118D01*
Y28195D01*
Y28272D01*
Y28349D01*
Y28426D01*
Y28503D01*
Y28580D01*
Y28657D01*
Y28734D01*
Y28811D01*
Y28888D01*
Y28965D01*
Y29042D01*
Y29119D01*
Y29196D01*
Y29273D01*
Y29350D01*
Y29427D01*
Y29505D01*
Y29582D01*
Y29659D01*
Y29736D01*
Y29813D01*
Y29890D01*
Y29967D01*
Y30044D01*
Y30121D01*
Y30198D01*
Y30275D01*
Y30352D01*
Y30429D01*
Y30506D01*
Y30583D01*
Y30660D01*
Y30737D01*
Y30814D01*
Y30891D01*
Y30969D01*
Y31046D01*
Y31123D01*
Y31200D01*
Y31277D01*
Y31354D01*
Y31431D01*
Y31508D01*
Y31585D01*
Y31662D01*
Y31739D01*
Y31816D01*
Y31893D01*
Y31970D01*
Y32047D01*
Y32124D01*
Y32201D01*
Y32278D01*
Y32355D01*
Y32433D01*
Y32510D01*
Y32587D01*
Y32664D01*
Y32741D01*
Y32818D01*
Y32895D01*
Y32972D01*
Y33049D01*
Y33126D01*
Y33203D01*
Y33280D01*
Y33357D01*
Y33434D01*
Y33511D01*
Y33588D01*
Y33665D01*
Y33742D01*
Y33820D01*
Y33897D01*
Y33974D01*
Y34051D01*
Y34128D01*
Y34205D01*
Y34282D01*
Y34359D01*
Y34436D01*
Y34513D01*
Y34590D01*
Y34667D01*
Y34744D01*
Y34821D01*
Y34898D01*
Y34975D01*
Y35052D01*
Y35129D01*
Y35206D01*
Y35284D01*
Y35361D01*
Y35438D01*
Y35515D01*
Y35592D01*
Y35669D01*
Y35746D01*
Y35823D01*
Y35900D01*
Y35977D01*
Y36054D01*
Y36131D01*
Y36208D01*
Y36285D01*
Y36362D01*
Y36439D01*
Y36516D01*
Y36593D01*
Y36671D01*
Y36748D01*
Y36825D01*
Y36902D01*
Y36979D01*
Y37056D01*
Y37133D01*
Y37210D01*
Y37287D01*
Y37364D01*
Y37441D01*
Y37518D01*
Y37595D01*
Y37672D01*
Y37749D01*
Y37826D01*
Y37903D01*
Y37980D01*
Y38058D01*
Y38135D01*
Y38212D01*
Y38289D01*
Y38366D01*
Y38443D01*
Y38520D01*
Y38597D01*
Y38674D01*
Y38751D01*
Y38828D01*
Y38905D01*
Y38982D01*
Y39059D01*
Y39136D01*
Y39213D01*
Y39290D01*
Y39367D01*
Y39445D01*
Y39522D01*
Y39599D01*
Y39676D01*
Y39753D01*
Y39830D01*
Y39907D01*
Y39984D01*
Y40061D01*
Y40138D01*
Y40215D01*
Y40292D01*
Y40369D01*
Y40446D01*
Y40523D01*
Y40600D01*
Y40677D01*
Y40754D01*
Y40831D01*
Y40909D01*
Y40986D01*
Y41063D01*
Y41140D01*
Y41217D01*
Y41294D01*
Y41371D01*
Y41448D01*
Y41525D01*
Y41602D01*
Y41679D01*
Y41756D01*
Y41833D01*
Y41910D01*
Y41987D01*
Y42064D01*
Y42141D01*
Y42218D01*
Y42296D01*
Y42373D01*
Y42450D01*
Y42527D01*
Y42604D01*
Y42681D01*
Y42758D01*
Y42835D01*
Y42912D01*
Y42989D01*
Y43066D01*
Y43143D01*
Y43220D01*
Y43297D01*
Y43374D01*
Y43451D01*
Y43528D01*
Y43605D01*
Y43682D01*
Y43760D01*
Y43837D01*
Y43914D01*
Y43991D01*
Y44068D01*
Y44145D01*
Y44222D01*
Y44299D01*
Y44376D01*
Y44453D01*
Y44530D01*
Y44607D01*
Y44684D01*
Y44761D01*
Y44838D01*
Y44915D01*
Y44992D01*
Y45069D01*
Y45146D01*
Y45224D01*
Y45300D01*
Y45378D01*
Y45455D01*
Y45532D01*
Y45609D01*
Y45686D01*
Y45763D01*
Y45840D01*
Y45917D01*
Y45994D01*
Y46071D01*
Y46148D01*
Y46225D01*
Y46302D01*
Y46379D01*
Y46456D01*
Y46533D01*
Y46611D01*
Y46687D01*
Y46765D01*
Y46842D01*
Y46919D01*
Y46996D01*
Y47073D01*
Y47150D01*
Y47227D01*
Y47304D01*
Y47381D01*
Y47458D01*
Y47535D01*
Y47612D01*
Y47689D01*
Y47766D01*
Y47843D01*
Y47920D01*
Y47997D01*
Y48074D01*
Y48151D01*
Y48229D01*
Y48306D01*
Y48383D01*
Y48460D01*
Y48537D01*
Y48614D01*
Y48691D01*
Y48768D01*
Y48845D01*
Y48922D01*
Y48999D01*
Y49076D01*
Y49153D01*
Y49230D01*
Y49307D01*
Y49384D01*
Y49461D01*
Y49538D01*
Y49616D01*
Y49693D01*
Y49770D01*
Y49847D01*
Y49924D01*
Y50001D01*
Y50078D01*
Y50155D01*
Y50232D01*
Y50309D01*
Y50386D01*
Y50463D01*
Y50540D01*
Y50617D01*
Y50694D01*
Y50771D01*
Y50848D01*
Y50925D01*
Y51003D01*
Y51080D01*
Y51157D01*
Y51234D01*
Y51311D01*
Y51388D01*
Y51465D01*
Y51542D01*
Y51619D01*
Y51696D01*
Y51773D01*
Y51850D01*
Y51927D01*
Y52004D01*
Y52081D01*
Y52158D01*
Y52235D01*
Y52312D01*
Y52390D01*
X91188D01*
Y52312D01*
D02*
G37*
%LPC*%
G36*
X71154Y48691D02*
X68457D01*
Y48614D01*
X67840D01*
Y48537D01*
X67455D01*
Y48460D01*
X67070D01*
Y48383D01*
X66839D01*
Y48306D01*
X66531D01*
Y48229D01*
X66222D01*
Y48151D01*
X65991D01*
Y48074D01*
X65760D01*
Y47997D01*
X65606D01*
Y47920D01*
X65375D01*
Y47843D01*
X65144D01*
Y47766D01*
X64990D01*
Y47689D01*
X64758D01*
Y47612D01*
X64604D01*
Y47535D01*
X64450D01*
Y47458D01*
X64296D01*
Y47381D01*
X64142D01*
Y47304D01*
X63911D01*
Y47227D01*
X63834D01*
Y47150D01*
X63680D01*
Y47073D01*
X63525D01*
Y46996D01*
X63371D01*
Y46919D01*
X63294D01*
Y46842D01*
X63140D01*
Y46765D01*
X62986D01*
Y46687D01*
X62832D01*
Y46611D01*
X62755D01*
Y46533D01*
X62601D01*
Y46456D01*
X62524D01*
Y46379D01*
X62370D01*
Y46302D01*
X62293D01*
Y46225D01*
X62139D01*
Y46148D01*
X62062D01*
Y46071D01*
X61984D01*
Y45994D01*
X61907D01*
Y45917D01*
X61753D01*
Y45840D01*
X61676D01*
Y45763D01*
X61599D01*
Y45686D01*
X61445D01*
Y45609D01*
X61368D01*
Y45532D01*
X61291D01*
Y45455D01*
X61214D01*
Y45378D01*
X61137D01*
Y45300D01*
X61060D01*
Y45224D01*
X60983D01*
Y45146D01*
X60906D01*
Y45069D01*
X60829D01*
Y44992D01*
X60752D01*
Y44915D01*
X60675D01*
Y44838D01*
X60597D01*
Y44761D01*
Y44684D01*
X60520D01*
Y44607D01*
X60443D01*
Y44530D01*
X60366D01*
Y44453D01*
Y44376D01*
X60289D01*
Y44299D01*
X60212D01*
Y44222D01*
Y44145D01*
X60135D01*
Y44068D01*
Y43991D01*
X60058D01*
Y43914D01*
X59981D01*
Y43837D01*
X59750D01*
Y43760D01*
X59596D01*
Y43682D01*
X59288D01*
Y43605D01*
X59133D01*
Y43528D01*
X58902D01*
Y43451D01*
X58671D01*
Y43374D01*
X58517D01*
Y43297D01*
X58286D01*
Y43220D01*
X58132D01*
Y43143D01*
X57901D01*
Y43066D01*
X57746D01*
Y42989D01*
X57515D01*
Y42912D01*
X57361D01*
Y42835D01*
X57207D01*
Y42758D01*
X57053D01*
Y42681D01*
X56899D01*
Y42604D01*
X56668D01*
Y42527D01*
X56514D01*
Y42450D01*
X56359D01*
Y42373D01*
X56205D01*
Y42296D01*
X56128D01*
Y42218D01*
X55974D01*
Y42141D01*
X55820D01*
Y42064D01*
X55666D01*
Y41987D01*
X55512D01*
Y41910D01*
X55435D01*
Y41833D01*
X55281D01*
Y41756D01*
X55204D01*
Y41679D01*
X55050D01*
Y41602D01*
X54973D01*
Y41525D01*
X54896D01*
Y41448D01*
X54741D01*
Y41371D01*
X54664D01*
Y41294D01*
X54587D01*
Y41217D01*
X54510D01*
Y41140D01*
X54433D01*
Y41063D01*
X54356D01*
Y40986D01*
X54279D01*
Y40909D01*
X54202D01*
Y40831D01*
X54125D01*
Y40754D01*
X54048D01*
Y40677D01*
X53971D01*
Y40600D01*
X53894D01*
Y40523D01*
Y40446D01*
X53817D01*
Y40369D01*
X53740D01*
Y40292D01*
Y40215D01*
X53663D01*
Y40138D01*
Y40061D01*
X53586D01*
Y39984D01*
Y39907D01*
X53509D01*
Y39830D01*
Y39753D01*
X53431D01*
Y39676D01*
Y39599D01*
Y39522D01*
Y39445D01*
X53354D01*
Y39367D01*
Y39290D01*
Y39213D01*
Y39136D01*
Y39059D01*
Y38982D01*
X53277D01*
Y38905D01*
Y38828D01*
Y38751D01*
Y38674D01*
Y38597D01*
Y38520D01*
Y38443D01*
X53354D01*
Y38366D01*
Y38289D01*
Y38212D01*
Y38135D01*
Y38058D01*
Y37980D01*
Y37903D01*
X53431D01*
Y37826D01*
Y37749D01*
Y37672D01*
Y37595D01*
Y37518D01*
X53509D01*
Y37441D01*
Y37364D01*
Y37287D01*
X53431D01*
Y37210D01*
X53277D01*
Y37133D01*
X53200D01*
Y37056D01*
X53123D01*
Y36979D01*
X53046D01*
Y36902D01*
X52892D01*
Y36825D01*
X52815D01*
Y36748D01*
X52738D01*
Y36671D01*
X52661D01*
Y36593D01*
X52584D01*
Y36516D01*
X52507D01*
Y36439D01*
X52430D01*
Y36362D01*
X52353D01*
Y36285D01*
X52276D01*
Y36208D01*
X52199D01*
Y36131D01*
X52122D01*
Y36054D01*
X52044D01*
Y35977D01*
Y35900D01*
X51968D01*
Y35823D01*
X51890D01*
Y35746D01*
X51813D01*
Y35669D01*
X51736D01*
Y35592D01*
Y35515D01*
X51659D01*
Y35438D01*
X51582D01*
Y35361D01*
X51505D01*
Y35284D01*
Y35206D01*
X51428D01*
Y35129D01*
X51351D01*
Y35052D01*
Y34975D01*
X51274D01*
Y34898D01*
X51197D01*
Y34821D01*
Y34744D01*
X51120D01*
Y34667D01*
Y34590D01*
X51043D01*
Y34513D01*
Y34436D01*
X50966D01*
Y34359D01*
Y34282D01*
X50889D01*
Y34205D01*
X50812D01*
Y34128D01*
Y34051D01*
Y33974D01*
X50735D01*
Y33897D01*
Y33820D01*
X50658D01*
Y33742D01*
Y33665D01*
Y33588D01*
X50581D01*
Y33511D01*
Y33434D01*
X50503D01*
Y33357D01*
Y33280D01*
Y33203D01*
X50426D01*
Y33126D01*
Y33049D01*
Y32972D01*
X50349D01*
Y32895D01*
Y32818D01*
Y32741D01*
X50272D01*
Y32664D01*
Y32587D01*
Y32510D01*
Y32433D01*
X50195D01*
Y32355D01*
Y32278D01*
Y32201D01*
Y32124D01*
X50118D01*
Y32047D01*
Y31970D01*
Y31893D01*
Y31816D01*
Y31739D01*
Y31662D01*
X50041D01*
Y31585D01*
Y31508D01*
Y31431D01*
Y31354D01*
Y31277D01*
Y31200D01*
Y31123D01*
Y31046D01*
Y30969D01*
Y30891D01*
Y30814D01*
Y30737D01*
Y30660D01*
Y30583D01*
Y30506D01*
Y30429D01*
Y30352D01*
Y30275D01*
Y30198D01*
Y30121D01*
Y30044D01*
Y29967D01*
Y29890D01*
Y29813D01*
Y29736D01*
Y29659D01*
Y29582D01*
Y29505D01*
Y29427D01*
Y29350D01*
Y29273D01*
X50118D01*
Y29196D01*
Y29119D01*
Y29042D01*
Y28965D01*
Y28888D01*
X50195D01*
Y28811D01*
Y28734D01*
Y28657D01*
X50272D01*
Y28580D01*
Y28503D01*
Y28426D01*
X50349D01*
Y28349D01*
Y28272D01*
X50426D01*
Y28195D01*
Y28118D01*
X50503D01*
Y28041D01*
X50581D01*
Y27964D01*
X50658D01*
Y27886D01*
X50735D01*
Y27809D01*
X50889D01*
Y27732D01*
X51043D01*
Y27655D01*
X51274D01*
Y27578D01*
X51659D01*
Y27501D01*
X51736D01*
Y27578D01*
X52276D01*
Y27655D01*
X52661D01*
Y27732D01*
X52892D01*
Y27809D01*
X53200D01*
Y27886D01*
X53431D01*
Y27964D01*
X53586D01*
Y28041D01*
X53817D01*
Y28118D01*
X53971D01*
Y28195D01*
X54202D01*
Y28272D01*
X54356D01*
Y28349D01*
X54510D01*
Y28426D01*
X54741D01*
Y28503D01*
X54896D01*
Y28580D01*
X55127D01*
Y28657D01*
X55281D01*
Y28734D01*
X55435D01*
Y28811D01*
X55666D01*
Y28888D01*
X55820D01*
Y28965D01*
X56051D01*
Y29042D01*
X56205D01*
Y29119D01*
X56359D01*
Y29196D01*
X56591D01*
Y29273D01*
X56745D01*
Y29350D01*
X56976D01*
Y29427D01*
X57130D01*
Y29505D01*
X57361D01*
Y29582D01*
X57515D01*
Y29659D01*
X57746D01*
Y29736D01*
X58055D01*
Y29659D01*
X58132D01*
Y29582D01*
X58209D01*
Y29505D01*
X58286D01*
Y29427D01*
X58363D01*
Y29350D01*
Y29273D01*
X58517D01*
Y29196D01*
X58594D01*
Y29119D01*
X58671D01*
Y29042D01*
X58748D01*
Y28965D01*
X58825D01*
Y28888D01*
X58902D01*
Y28811D01*
X59056D01*
Y28734D01*
X59133D01*
Y28657D01*
X59288D01*
Y28580D01*
X59442D01*
Y28503D01*
X59596D01*
Y28426D01*
X59827D01*
Y28349D01*
X60058D01*
Y28272D01*
X61445D01*
Y28349D01*
X61753D01*
Y28426D01*
X62062D01*
Y28503D01*
X62216D01*
Y28580D01*
X62524D01*
Y28657D01*
X62678D01*
Y28734D01*
X62909D01*
Y28811D01*
X63063D01*
Y28888D01*
X63294D01*
Y28965D01*
X63449D01*
Y29042D01*
X63603D01*
Y29119D01*
X63834D01*
Y29196D01*
X63988D01*
Y29273D01*
X64219D01*
Y29350D01*
X64373D01*
Y29427D01*
X64527D01*
Y29505D01*
X64758D01*
Y29582D01*
X64912D01*
Y29659D01*
X65144D01*
Y29736D01*
X65298D01*
Y29659D01*
X65452D01*
Y29582D01*
X65606D01*
Y29505D01*
X65837D01*
Y29427D01*
X65991D01*
Y29350D01*
X66222D01*
Y29273D01*
X66531D01*
Y29196D01*
X66762D01*
Y29119D01*
X67070D01*
Y29042D01*
X67378D01*
Y28965D01*
X67840D01*
Y28888D01*
X68303D01*
Y28811D01*
X69459D01*
Y28734D01*
X69613D01*
Y28811D01*
X70769D01*
Y28888D01*
X71231D01*
Y28965D01*
X71616D01*
Y29042D01*
X71924D01*
Y29119D01*
X72233D01*
Y29196D01*
X72387D01*
Y29273D01*
X72618D01*
Y29350D01*
X72849D01*
Y29427D01*
X73003D01*
Y29505D01*
X73157D01*
Y29582D01*
X73311D01*
Y29659D01*
X73697D01*
Y29582D01*
X73851D01*
Y29505D01*
X74082D01*
Y29427D01*
X74236D01*
Y29350D01*
X74390D01*
Y29273D01*
X74621D01*
Y29196D01*
X74775D01*
Y29119D01*
X75007D01*
Y29042D01*
X75161D01*
Y28965D01*
X75392D01*
Y28888D01*
X75546D01*
Y28811D01*
X75777D01*
Y28734D01*
X76008D01*
Y28657D01*
X76162D01*
Y28580D01*
X76394D01*
Y28503D01*
X76625D01*
Y28426D01*
X76933D01*
Y28349D01*
X77241D01*
Y28272D01*
X77626D01*
Y28195D01*
X79090D01*
Y28272D01*
X79399D01*
Y28349D01*
X79630D01*
Y28426D01*
X79861D01*
Y28503D01*
X80015D01*
Y28580D01*
X80169D01*
Y28657D01*
X80246D01*
Y28734D01*
X80400D01*
Y28811D01*
X80477D01*
Y28888D01*
X80631D01*
Y28965D01*
X80708D01*
Y29042D01*
X80786D01*
Y29119D01*
X80863D01*
Y29196D01*
X81017D01*
Y29273D01*
X81094D01*
Y29350D01*
X81171D01*
Y29427D01*
X81248D01*
Y29505D01*
X81402D01*
Y29427D01*
X81633D01*
Y29350D01*
X81864D01*
Y29273D01*
X82018D01*
Y29196D01*
X82250D01*
Y29119D01*
X82404D01*
Y29042D01*
X82558D01*
Y28965D01*
X82789D01*
Y28888D01*
X82943D01*
Y28811D01*
X83174D01*
Y28734D01*
X83328D01*
Y28657D01*
X83482D01*
Y28580D01*
X83714D01*
Y28503D01*
X83868D01*
Y28426D01*
X84022D01*
Y28349D01*
X84253D01*
Y28272D01*
X84407D01*
Y28195D01*
X84638D01*
Y28118D01*
X84792D01*
Y28041D01*
X84946D01*
Y27964D01*
X85101D01*
Y27886D01*
X85332D01*
Y27809D01*
X85563D01*
Y27732D01*
X85717D01*
Y27655D01*
X86025D01*
Y27578D01*
X86179D01*
Y27501D01*
X86565D01*
Y27424D01*
X87797D01*
Y27501D01*
X88029D01*
Y27578D01*
X88183D01*
Y27655D01*
X88260D01*
Y27732D01*
X88414D01*
Y27809D01*
X88491D01*
Y27886D01*
X88568D01*
Y27964D01*
Y28041D01*
X88645D01*
Y28118D01*
X88722D01*
Y28195D01*
Y28272D01*
X88799D01*
Y28349D01*
Y28426D01*
Y28503D01*
X88876D01*
Y28580D01*
Y28657D01*
Y28734D01*
X88953D01*
Y28811D01*
Y28888D01*
Y28965D01*
Y29042D01*
X89030D01*
Y29119D01*
Y29196D01*
Y29273D01*
Y29350D01*
Y29427D01*
X89107D01*
Y29505D01*
Y29582D01*
Y29659D01*
Y29736D01*
Y29813D01*
Y29890D01*
Y29967D01*
Y30044D01*
Y30121D01*
Y30198D01*
Y30275D01*
Y30352D01*
Y30429D01*
Y30506D01*
Y30583D01*
Y30660D01*
Y30737D01*
Y30814D01*
Y30891D01*
Y30969D01*
Y31046D01*
Y31123D01*
Y31200D01*
Y31277D01*
Y31354D01*
Y31431D01*
Y31508D01*
Y31585D01*
X89030D01*
Y31662D01*
Y31739D01*
Y31816D01*
Y31893D01*
Y31970D01*
Y32047D01*
X88953D01*
Y32124D01*
Y32201D01*
Y32278D01*
Y32355D01*
Y32433D01*
X88876D01*
Y32510D01*
Y32587D01*
Y32664D01*
Y32741D01*
X88799D01*
Y32818D01*
Y32895D01*
Y32972D01*
X88722D01*
Y33049D01*
Y33126D01*
Y33203D01*
X88645D01*
Y33280D01*
Y33357D01*
Y33434D01*
X88568D01*
Y33511D01*
Y33588D01*
Y33665D01*
X88491D01*
Y33742D01*
Y33820D01*
X88414D01*
Y33897D01*
Y33974D01*
X88337D01*
Y34051D01*
Y34128D01*
Y34205D01*
X88260D01*
Y34282D01*
X88183D01*
Y34359D01*
Y34436D01*
X88106D01*
Y34513D01*
Y34590D01*
X88029D01*
Y34667D01*
Y34744D01*
X87951D01*
Y34821D01*
Y34898D01*
X87875D01*
Y34975D01*
X87797D01*
Y35052D01*
Y35129D01*
X87720D01*
Y35206D01*
X87643D01*
Y35284D01*
Y35361D01*
X87566D01*
Y35438D01*
X87489D01*
Y35515D01*
X87412D01*
Y35592D01*
Y35669D01*
X87335D01*
Y35746D01*
X87258D01*
Y35823D01*
X87181D01*
Y35900D01*
X87104D01*
Y35977D01*
X87027D01*
Y36054D01*
X86950D01*
Y36131D01*
Y36208D01*
X86873D01*
Y36285D01*
X86796D01*
Y36362D01*
X86719D01*
Y36439D01*
X86642D01*
Y36516D01*
X86488D01*
Y36593D01*
X86410D01*
Y36671D01*
X86333D01*
Y36748D01*
X86256D01*
Y36825D01*
X86179D01*
Y36902D01*
X86102D01*
Y36979D01*
X85948D01*
Y37056D01*
X85871D01*
Y37133D01*
Y37210D01*
X85948D01*
Y37287D01*
Y37364D01*
X86025D01*
Y37441D01*
Y37518D01*
Y37595D01*
X86102D01*
Y37672D01*
Y37749D01*
Y37826D01*
X86179D01*
Y37903D01*
Y37980D01*
Y38058D01*
X86256D01*
Y38135D01*
Y38212D01*
Y38289D01*
Y38366D01*
Y38443D01*
Y38520D01*
X86333D01*
Y38597D01*
Y38674D01*
Y38751D01*
Y38828D01*
Y38905D01*
Y38982D01*
X86256D01*
Y39059D01*
Y39136D01*
Y39213D01*
Y39290D01*
Y39367D01*
X86179D01*
Y39445D01*
Y39522D01*
Y39599D01*
X86102D01*
Y39676D01*
Y39753D01*
X86025D01*
Y39830D01*
Y39907D01*
X85948D01*
Y39984D01*
Y40061D01*
X85871D01*
Y40138D01*
X85794D01*
Y40215D01*
Y40292D01*
X85717D01*
Y40369D01*
X85640D01*
Y40446D01*
X85563D01*
Y40523D01*
X85486D01*
Y40600D01*
X85409D01*
Y40677D01*
X85332D01*
Y40754D01*
X85255D01*
Y40831D01*
X85178D01*
Y40909D01*
X85023D01*
Y40986D01*
X84946D01*
Y41063D01*
X84869D01*
Y41140D01*
X84715D01*
Y41217D01*
X84638D01*
Y41294D01*
X84484D01*
Y41371D01*
X84407D01*
Y41448D01*
X84253D01*
Y41525D01*
X84176D01*
Y41602D01*
X84022D01*
Y41679D01*
X83868D01*
Y41756D01*
X83714D01*
Y41833D01*
X83560D01*
Y41910D01*
X83405D01*
Y41987D01*
X83251D01*
Y42064D01*
X83097D01*
Y42141D01*
X82943D01*
Y42218D01*
X82789D01*
Y42296D01*
X82635D01*
Y42373D01*
X82481D01*
Y42450D01*
X82327D01*
Y42527D01*
X82173D01*
Y42604D01*
X81941D01*
Y42681D01*
X81787D01*
Y42758D01*
X81633D01*
Y42835D01*
X81402D01*
Y42912D01*
X81248D01*
Y42989D01*
X81017D01*
Y43066D01*
X80863D01*
Y43143D01*
X80631D01*
Y43220D01*
X80477D01*
Y43297D01*
X80246D01*
Y43374D01*
X80092D01*
Y43451D01*
X79938D01*
Y43528D01*
X79784D01*
Y43605D01*
Y43682D01*
Y43760D01*
X79707D01*
Y43837D01*
Y43914D01*
Y43991D01*
X79630D01*
Y44068D01*
Y44145D01*
X79553D01*
Y44222D01*
Y44299D01*
X79476D01*
Y44376D01*
Y44453D01*
X79399D01*
Y44530D01*
X79321D01*
Y44607D01*
Y44684D01*
X79245D01*
Y44761D01*
X79167D01*
Y44838D01*
Y44915D01*
X79090D01*
Y44992D01*
X79013D01*
Y45069D01*
X78936D01*
Y45146D01*
X78859D01*
Y45224D01*
X78782D01*
Y45300D01*
X78705D01*
Y45378D01*
X78628D01*
Y45455D01*
X78551D01*
Y45532D01*
X78474D01*
Y45609D01*
X78397D01*
Y45686D01*
X78320D01*
Y45763D01*
X78243D01*
Y45840D01*
X78089D01*
Y45917D01*
X78012D01*
Y45994D01*
X77935D01*
Y46071D01*
X77780D01*
Y46148D01*
X77703D01*
Y46225D01*
X77626D01*
Y46302D01*
X77472D01*
Y46379D01*
X77395D01*
Y46456D01*
X77241D01*
Y46533D01*
X77164D01*
Y46611D01*
X77010D01*
Y46687D01*
X76856D01*
Y46765D01*
X76702D01*
Y46842D01*
X76625D01*
Y46919D01*
X76471D01*
Y46996D01*
X76316D01*
Y47073D01*
X76162D01*
Y47150D01*
X76008D01*
Y47227D01*
X75854D01*
Y47304D01*
X75700D01*
Y47381D01*
X75546D01*
Y47458D01*
X75392D01*
Y47535D01*
X75161D01*
Y47612D01*
X75007D01*
Y47689D01*
X74775D01*
Y47766D01*
X74621D01*
Y47843D01*
X74390D01*
Y47920D01*
X74159D01*
Y47997D01*
X74005D01*
Y48074D01*
X73697D01*
Y48151D01*
X73465D01*
Y48229D01*
X73157D01*
Y48306D01*
X72849D01*
Y48383D01*
X72541D01*
Y48460D01*
X72155D01*
Y48537D01*
X71770D01*
Y48614D01*
X71154D01*
Y48691D01*
D02*
G37*
%LPD*%
M02*
