G04*
G04 #@! TF.GenerationSoftware,Altium Limited,Altium Designer,20.1.8 (145)*
G04*
G04 Layer_Physical_Order=1*
G04 Layer_Color=255*
%FSLAX25Y25*%
%MOIN*%
G70*
G04*
G04 #@! TF.SameCoordinates,5D2BCBBB-68BA-462B-8042-098B58F1E690*
G04*
G04*
G04 #@! TF.FilePolarity,Positive*
G04*
G01*
G75*
%ADD10C,0.01000*%
%ADD33R,0.03150X0.00984*%
%ADD34R,0.00984X0.03150*%
%ADD35R,0.10630X0.10630*%
%ADD36C,0.03937*%
%ADD37R,0.03150X0.04921*%
%ADD38R,0.02362X0.03150*%
%ADD39R,0.02756X0.03937*%
%ADD40R,0.02756X0.01181*%
%ADD41R,0.08268X0.05709*%
%ADD42R,0.01968X0.03740*%
%ADD43R,0.01968X0.03150*%
%ADD44R,0.03150X0.03543*%
%ADD45R,0.03937X0.04331*%
%ADD46C,0.02000*%
%ADD47C,0.01500*%
%ADD48O,0.10236X0.05118*%
%ADD49O,0.08661X0.04331*%
%ADD50C,0.09449*%
%ADD51R,0.09449X0.09449*%
%ADD52C,0.03150*%
%ADD53C,0.02756*%
G36*
X118110D02*
X0D01*
Y78740D01*
X118110D01*
Y0D01*
D02*
G37*
%LPC*%
G36*
X27264Y75776D02*
X22630D01*
Y72421D01*
X27264D01*
Y75776D01*
D02*
G37*
G36*
X21630D02*
X16996D01*
Y72421D01*
X21630D01*
Y75776D01*
D02*
G37*
G36*
X27264Y71421D02*
X22630D01*
Y68067D01*
X27264D01*
Y71421D01*
D02*
G37*
G36*
X21630D02*
X16996D01*
Y68067D01*
X21630D01*
Y71421D01*
D02*
G37*
G36*
X75525Y68061D02*
X71376D01*
Y67415D01*
X70401Y66864D01*
X70376Y66869D01*
X69591Y67025D01*
X68781Y66864D01*
X68095Y66405D01*
X67636Y65719D01*
X67475Y64909D01*
X67636Y64100D01*
X68095Y63414D01*
X68781Y62955D01*
X69591Y62794D01*
X70376Y62950D01*
X70401Y62954D01*
X71376Y62404D01*
X71376Y62139D01*
X71476Y61181D01*
Y59420D01*
X70900D01*
X70510Y59342D01*
X70179Y59121D01*
X68279Y57221D01*
X68058Y56890D01*
X67980Y56500D01*
Y50922D01*
X67078Y50020D01*
X62786D01*
X62468Y50888D01*
X62468D01*
Y56219D01*
X58020D01*
Y57581D01*
X62468D01*
Y62912D01*
X62454D01*
X61919Y63912D01*
X62045Y64100D01*
X62206Y64909D01*
X62045Y65719D01*
X61586Y66405D01*
X60900Y66864D01*
X60091Y67025D01*
X59281Y66864D01*
X58595Y66405D01*
X58136Y65719D01*
X57975Y64909D01*
X58136Y64100D01*
X58262Y63912D01*
X57727Y62912D01*
X57531D01*
Y61266D01*
X56269D01*
Y62912D01*
X55954D01*
X55419Y63912D01*
X55545Y64100D01*
X55706Y64909D01*
X55545Y65719D01*
X55086Y66405D01*
X54400Y66864D01*
X53591Y67025D01*
X52781Y66864D01*
X52095Y66405D01*
X51636Y65719D01*
X51475Y64909D01*
X51636Y64100D01*
X51762Y63912D01*
X51332Y62912D01*
X51332D01*
Y57581D01*
X55980D01*
Y56219D01*
X51332D01*
Y50888D01*
X52780D01*
Y48149D01*
X52379D01*
Y45574D01*
X51879D01*
Y45074D01*
X50387D01*
Y43613D01*
X49064D01*
X48926Y43641D01*
X48788Y43613D01*
X48309D01*
X47701Y44221D01*
X47370Y44442D01*
X46980Y44520D01*
X39196D01*
X39173Y44636D01*
X38758Y45257D01*
X38136Y45673D01*
X37404Y45818D01*
X36671Y45673D01*
X36050Y45257D01*
X35635Y44636D01*
X35573Y44327D01*
X33854D01*
Y44776D01*
X31476D01*
Y45776D01*
X33854D01*
Y46866D01*
X33354D01*
Y50071D01*
X35125D01*
X35504Y49504D01*
X36190Y49046D01*
X37000Y48885D01*
X37810Y49046D01*
X38496Y49504D01*
X38954Y50190D01*
X39115Y51000D01*
X38954Y51810D01*
X38496Y52496D01*
X37810Y52954D01*
X37000Y53115D01*
X36190Y52954D01*
X35504Y52496D01*
X35246Y52110D01*
X33354D01*
Y52272D01*
X29598D01*
Y47666D01*
X29236Y47446D01*
X28236Y48009D01*
Y53690D01*
X32028D01*
X32723Y53781D01*
X33372Y54050D01*
X33928Y54477D01*
X34356Y55034D01*
X34624Y55682D01*
X34716Y56378D01*
X34624Y57074D01*
X34356Y57722D01*
X33928Y58279D01*
X33372Y58706D01*
X32723Y58975D01*
X32028Y59066D01*
X27697D01*
X27001Y58975D01*
X26353Y58706D01*
X25796Y58279D01*
X25369Y57722D01*
X25100Y57074D01*
X25008Y56378D01*
X25100Y55682D01*
X25369Y55034D01*
X24868Y54043D01*
X24480D01*
Y53322D01*
X23496Y52996D01*
X22809Y53454D01*
X22000Y53615D01*
X21191Y53454D01*
X20504Y52996D01*
X20046Y52310D01*
X19884Y51500D01*
X20046Y50690D01*
X20504Y50004D01*
X21191Y49546D01*
X22000Y49385D01*
X22809Y49546D01*
X23496Y50004D01*
X24480Y49678D01*
Y45882D01*
X23980D01*
Y44791D01*
X26358D01*
Y43791D01*
X23783D01*
X23739Y43750D01*
X22980Y43324D01*
X22500Y43419D01*
X21767Y43273D01*
X21146Y42858D01*
X20731Y42237D01*
X20585Y41504D01*
X20729Y40781D01*
X20731Y40770D01*
X20765Y39827D01*
X20437Y39549D01*
X20146Y39354D01*
X19731Y38733D01*
X19585Y38000D01*
X19731Y37267D01*
X20146Y36646D01*
X20767Y36231D01*
X21500Y36085D01*
X21721Y35109D01*
Y16228D01*
X21256D01*
Y11488D01*
X24224D01*
Y16228D01*
X23760D01*
Y23593D01*
X24657Y24270D01*
X24712Y24249D01*
X25132Y23135D01*
X25100Y23058D01*
X25008Y22362D01*
X25100Y21666D01*
X25369Y21018D01*
X25796Y20461D01*
X26353Y20034D01*
X27001Y19766D01*
X27697Y19674D01*
X32028D01*
X32723Y19766D01*
X33372Y20034D01*
X33928Y20461D01*
X34356Y21018D01*
X34624Y21666D01*
X34716Y22362D01*
X34624Y23058D01*
X34356Y23706D01*
X33928Y24263D01*
X33372Y24690D01*
X32723Y24959D01*
X32028Y25051D01*
X28266D01*
Y26787D01*
X28236Y26935D01*
Y30731D01*
X29236Y31294D01*
X29598Y31074D01*
Y26469D01*
X33354D01*
Y26571D01*
X35125D01*
X35504Y26004D01*
X36190Y25546D01*
X37000Y25385D01*
X37810Y25546D01*
X38496Y26004D01*
X38954Y26690D01*
X39115Y27500D01*
X38954Y28310D01*
X38496Y28996D01*
X37810Y29454D01*
X37000Y29615D01*
X36190Y29454D01*
X35504Y28996D01*
X35246Y28610D01*
X33354D01*
Y31874D01*
X33854D01*
Y32965D01*
X31476D01*
Y33965D01*
X33854D01*
Y35055D01*
X33854D01*
X33856Y35085D01*
X34090Y35258D01*
X34874Y35515D01*
X35267Y35253D01*
X36000Y35107D01*
X36733Y35253D01*
X37354Y35668D01*
X37769Y36289D01*
X37915Y37022D01*
X37843Y37380D01*
X38373Y38236D01*
X38554Y38380D01*
X42178D01*
X44563Y35995D01*
X44894Y35774D01*
X45284Y35696D01*
X45854D01*
X45923Y35478D01*
X45851Y35271D01*
X45200Y34447D01*
X44781Y34364D01*
X44095Y33905D01*
X43636Y33219D01*
X43475Y32409D01*
X43636Y31600D01*
X44095Y30914D01*
X44781Y30455D01*
X45591Y30294D01*
X46400Y30455D01*
X47086Y30914D01*
X47545Y31600D01*
X47575Y31751D01*
X48918D01*
X48997Y31767D01*
X50887D01*
Y29964D01*
X50859Y29826D01*
Y25301D01*
X49897Y24339D01*
X49000Y24517D01*
X48037Y24325D01*
X47220Y23780D01*
X46675Y22963D01*
X46483Y22000D01*
X46675Y21037D01*
X47220Y20220D01*
X48037Y19675D01*
X49000Y19483D01*
X49963Y19675D01*
X50780Y20220D01*
X51325Y21037D01*
X51517Y22000D01*
X51338Y22897D01*
X52069Y23627D01*
X53111Y23622D01*
X53330Y23366D01*
X53653Y22855D01*
X53483Y22000D01*
X53675Y21037D01*
X54220Y20220D01*
X55037Y19675D01*
X56000Y19483D01*
X56963Y19675D01*
X57780Y20220D01*
X58325Y21037D01*
X58517Y22000D01*
X58325Y22963D01*
X57780Y23780D01*
X56963Y24325D01*
X56000Y24517D01*
X55604Y24438D01*
X54867Y25175D01*
Y27751D01*
X59123D01*
X59658Y26751D01*
X59636Y26719D01*
X59475Y25909D01*
X59636Y25100D01*
X60095Y24414D01*
X60781Y23955D01*
X61590Y23794D01*
X62400Y23955D01*
X63086Y24414D01*
X63545Y25100D01*
X63706Y25909D01*
X63545Y26719D01*
X63086Y27405D01*
X62733Y27641D01*
Y29786D01*
X62741Y29826D01*
X62733Y29866D01*
Y31767D01*
X64635D01*
X64674Y31759D01*
X64812Y31787D01*
X66749D01*
Y33728D01*
X69747D01*
X70137Y33805D01*
X70468Y34026D01*
X72721Y36279D01*
X72942Y36610D01*
X73020Y37000D01*
Y40025D01*
X74159D01*
Y42600D01*
Y45175D01*
X73020D01*
Y48639D01*
X75625D01*
Y54561D01*
X75625D01*
Y55439D01*
X75625D01*
Y61181D01*
X75625Y61361D01*
X75525Y62319D01*
Y62361D01*
Y68061D01*
D02*
G37*
G36*
X19862Y65772D02*
Y63500D01*
X21937D01*
Y65772D01*
X19862D01*
D02*
G37*
G36*
X93000Y72020D02*
X85650D01*
X85259Y71942D01*
X84929Y71721D01*
X81288Y68080D01*
X80824D01*
X80726Y68061D01*
X77675D01*
Y62139D01*
X77675D01*
X77675Y62139D01*
X77775Y61181D01*
Y55439D01*
X77775Y55439D01*
Y54561D01*
X77775D01*
X77775Y54439D01*
Y48639D01*
X81924D01*
Y52564D01*
X82200Y52619D01*
X82531Y52840D01*
X85221Y55529D01*
X85442Y55860D01*
X85520Y56250D01*
Y63578D01*
X86744Y64802D01*
X87744Y64791D01*
Y63975D01*
X90713D01*
X90713Y63975D01*
X91287D01*
Y63975D01*
X91713Y63975D01*
X93549D01*
X93964Y62975D01*
X92814Y61825D01*
X92005D01*
X91213Y62325D01*
X90495Y62325D01*
X89728D01*
Y59750D01*
Y57176D01*
X91213D01*
X92005Y57676D01*
X94256D01*
Y60383D01*
X96221Y62348D01*
X96442Y62679D01*
X96520Y63069D01*
Y68500D01*
X96442Y68890D01*
X96221Y69221D01*
X93721Y71721D01*
X93390Y71942D01*
X93000Y72020D01*
D02*
G37*
G36*
X88728Y62325D02*
X87244D01*
Y60250D01*
X88728D01*
Y62325D01*
D02*
G37*
G36*
X21937Y62500D02*
X19862D01*
Y60228D01*
X21937D01*
Y62500D01*
D02*
G37*
G36*
X15347Y75276D02*
X6079D01*
Y68567D01*
X9183D01*
Y63000D01*
Y59463D01*
X6201D01*
X5402Y59358D01*
X4658Y59050D01*
X4019Y58560D01*
X3529Y57921D01*
X3221Y57177D01*
X3115Y56378D01*
X3221Y55579D01*
X3529Y54835D01*
X4019Y54196D01*
X4658Y53706D01*
X5402Y53398D01*
X6201Y53293D01*
X11319D01*
X12117Y53398D01*
X12862Y53706D01*
X13501Y54196D01*
X13991Y54835D01*
X14299Y55579D01*
X14404Y56378D01*
X14299Y57177D01*
X13991Y57921D01*
X13501Y58560D01*
X12862Y59050D01*
X12242Y59307D01*
Y59861D01*
X12563Y60728D01*
X15994D01*
X16787Y60228D01*
X17505Y60228D01*
X18862D01*
Y63000D01*
Y65772D01*
X17505D01*
X16787Y65772D01*
X15994Y65272D01*
X12563D01*
X12242Y66139D01*
Y68567D01*
X15347D01*
Y75276D01*
D02*
G37*
G36*
X88728Y59250D02*
X87244D01*
Y57176D01*
X88728D01*
Y59250D01*
D02*
G37*
G36*
X51379Y48149D02*
X50387D01*
Y46074D01*
X51379D01*
Y48149D01*
D02*
G37*
G36*
X104224Y50824D02*
X99000D01*
Y45600D01*
X104224D01*
Y50824D01*
D02*
G37*
G36*
X98000D02*
X92776D01*
Y45600D01*
X98000D01*
Y50824D01*
D02*
G37*
G36*
X79500Y45428D02*
Y43000D01*
X81928D01*
X81892Y43275D01*
X81593Y43997D01*
X81117Y44617D01*
X80497Y45093D01*
X79775Y45392D01*
X79500Y45428D01*
D02*
G37*
G36*
X18500Y46415D02*
X17767Y46269D01*
X17146Y45854D01*
X16731Y45233D01*
X16585Y44500D01*
X16664Y44106D01*
X14539Y41981D01*
X14318Y41650D01*
X14240Y41260D01*
Y25184D01*
X14094Y25057D01*
X13240Y24744D01*
X12862Y25034D01*
X12117Y25343D01*
X11319Y25448D01*
X6201D01*
X5402Y25343D01*
X4658Y25034D01*
X4019Y24544D01*
X3529Y23905D01*
X3221Y23161D01*
X3115Y22362D01*
X3221Y21564D01*
X3529Y20820D01*
X4019Y20180D01*
X4658Y19690D01*
X5402Y19382D01*
X6201Y19277D01*
X11319D01*
X12117Y19382D01*
X12862Y19690D01*
X13240Y19981D01*
X14094Y19668D01*
X14240Y19541D01*
Y16228D01*
X13776D01*
Y11488D01*
X16744D01*
Y16228D01*
X16279D01*
Y40837D01*
X18106Y42664D01*
X18500Y42585D01*
X19233Y42731D01*
X19854Y43146D01*
X20269Y43767D01*
X20415Y44500D01*
X20269Y45233D01*
X19854Y45854D01*
X19233Y46269D01*
X18500Y46415D01*
D02*
G37*
G36*
X81928Y42000D02*
X79500D01*
Y39572D01*
X79775Y39608D01*
X80497Y39907D01*
X81117Y40383D01*
X81593Y41003D01*
X81892Y41725D01*
X81928Y42000D01*
D02*
G37*
G36*
X78500Y45428D02*
X78225Y45392D01*
X77820Y45224D01*
X76840Y45175D01*
Y45175D01*
X75159D01*
Y42600D01*
Y40025D01*
X76840D01*
X76840Y40025D01*
X77749Y39805D01*
X78225Y39608D01*
X78500Y39572D01*
Y42500D01*
Y45428D01*
D02*
G37*
G36*
X104224Y44600D02*
X99000D01*
Y39376D01*
X104224D01*
Y44600D01*
D02*
G37*
G36*
X98000D02*
X92776D01*
Y39376D01*
X98000D01*
Y44600D01*
D02*
G37*
G36*
X98500Y30684D02*
X97136Y30505D01*
X95865Y29978D01*
X94774Y29141D01*
X93937Y28050D01*
X93496Y26987D01*
X80975D01*
X80780Y27280D01*
X79963Y27825D01*
X79000Y28017D01*
X78037Y27825D01*
X77220Y27280D01*
X76675Y26463D01*
X76483Y25500D01*
X76675Y24537D01*
X77220Y23720D01*
X78037Y23175D01*
X79000Y22983D01*
X79963Y23175D01*
X80780Y23720D01*
X80919Y23928D01*
X93461D01*
X93937Y22780D01*
X94774Y21689D01*
X95865Y20851D01*
X96971Y20394D01*
Y10876D01*
X93379D01*
Y4167D01*
X102647D01*
Y10876D01*
X100029D01*
Y20394D01*
X101135Y20851D01*
X102226Y21689D01*
X103063Y22780D01*
X103590Y24051D01*
X103770Y25415D01*
X103590Y26779D01*
X103063Y28050D01*
X102226Y29141D01*
X101135Y29978D01*
X99864Y30505D01*
X98500Y30684D01*
D02*
G37*
G36*
X114564Y11376D02*
X109930D01*
Y8021D01*
X114564D01*
Y11376D01*
D02*
G37*
G36*
X108930D02*
X104296D01*
Y8021D01*
X108930D01*
Y11376D01*
D02*
G37*
G36*
X114564Y7021D02*
X109930D01*
Y3667D01*
X114564D01*
Y7021D01*
D02*
G37*
G36*
X108930D02*
X104296D01*
Y3667D01*
X108930D01*
Y7021D01*
D02*
G37*
G36*
X20484Y8512D02*
X17516D01*
Y6369D01*
X17471Y6142D01*
X17516Y5915D01*
Y3772D01*
X20484D01*
Y4612D01*
X25634D01*
X25636Y4600D01*
X26095Y3914D01*
X26781Y3455D01*
X27591Y3294D01*
X28400Y3455D01*
X29086Y3914D01*
X29545Y4600D01*
X29706Y5409D01*
X29545Y6219D01*
X29086Y6905D01*
X28400Y7364D01*
X27591Y7525D01*
X27272Y7462D01*
X27132Y7555D01*
X26547Y7671D01*
X20484D01*
Y8512D01*
D02*
G37*
%LPD*%
D10*
X57000Y60246D02*
X60000D01*
X48918Y32771D02*
X48926Y32779D01*
X45952Y32771D02*
X48918D01*
X45591Y32409D02*
X45952Y32771D01*
X61713Y29818D02*
X61721Y29826D01*
X61713Y26032D02*
Y29818D01*
X61590Y25909D02*
X61713Y26032D01*
X73260Y64909D02*
X73450Y65100D01*
X69591Y64909D02*
X73260D01*
X53800Y60246D02*
X57000D01*
Y50232D02*
Y60000D01*
X55816Y45574D02*
Y49048D01*
X57000Y50232D01*
X60000Y60246D02*
X60091Y60337D01*
Y64909D01*
X53591Y60456D02*
X53800Y60246D01*
X53591Y60456D02*
Y64909D01*
X55816Y38684D02*
X55816Y38684D01*
Y45574D01*
Y38684D02*
X56800Y37700D01*
X48926Y38684D02*
X55816D01*
X48926Y32779D02*
X48934Y32787D01*
X51887D01*
X56800Y37700D01*
X57784Y36716D02*
X61713Y32787D01*
X64666D02*
X64674Y32779D01*
X61713Y32787D02*
X64666D01*
X56800Y37700D02*
X57784Y36716D01*
X61713Y29834D02*
X61721Y29826D01*
X61713Y29834D02*
Y32787D01*
X57784Y29826D02*
Y36716D01*
X31567Y27591D02*
X36909D01*
Y51091D02*
X37000Y51000D01*
X31567Y51091D02*
X36909D01*
X31476Y51181D02*
X31567Y51091D01*
X26283Y51500D02*
X26358Y51575D01*
X22000Y51500D02*
X26283D01*
X91173Y69500D02*
X92287Y68386D01*
Y66534D02*
Y68386D01*
X87000Y69500D02*
X91173D01*
X85650Y71000D02*
X93000D01*
X79750Y65986D02*
X80824Y67061D01*
X81710D01*
X79750Y65100D02*
Y65986D01*
X81710Y67061D02*
X85650Y71000D01*
X84500Y56250D02*
Y64000D01*
X86330Y65830D02*
X89009D01*
X84500Y64000D02*
X86330Y65830D01*
X83000Y61207D02*
Y65500D01*
X87000Y69500D01*
X81810Y53561D02*
X84500Y56250D01*
X79850Y52486D02*
X80924Y53561D01*
X81810D01*
X89009Y65830D02*
X89228Y66050D01*
X80924Y60307D02*
X82100D01*
X79850Y58400D02*
Y59232D01*
X80924Y60307D01*
X82100D02*
X83000Y61207D01*
X69000Y50500D02*
Y56500D01*
X70900Y58400D02*
X73550D01*
X69000Y56500D02*
X70900Y58400D01*
X67500Y49000D02*
X69000Y50500D01*
X61000Y49000D02*
X67500D01*
X93000Y71000D02*
X95500Y68500D01*
X92772Y60341D02*
X95500Y63069D01*
Y68500D01*
X92287Y66534D02*
X92772Y66050D01*
X64674Y34747D02*
X69747D01*
X72000Y37000D02*
Y49164D01*
X69747Y34747D02*
X72000Y37000D01*
X73550Y50714D02*
Y51600D01*
X72000Y49164D02*
X73550Y50714D01*
X59761Y47761D02*
X61000Y49000D01*
X59761Y45582D02*
Y47761D01*
X59753Y45574D02*
X59761Y45582D01*
X92772Y59750D02*
Y60341D01*
X44115Y41248D02*
X44266Y41097D01*
X31567Y41248D02*
X44115D01*
X31476Y41339D02*
X31567Y41248D01*
X36928Y43904D02*
X37879D01*
X36332Y43307D02*
X36928Y43904D01*
X31476Y43307D02*
X36332D01*
X46980Y43500D02*
X47851Y42629D01*
X38282Y43500D02*
X46980D01*
X37879Y43904D02*
X38282Y43500D01*
X22361Y38386D02*
X26358D01*
X21975Y38000D02*
X22361Y38386D01*
X21500Y38000D02*
X21975D01*
X58531Y52085D02*
X60000Y53553D01*
X58531Y49642D02*
Y52085D01*
X57784Y48895D02*
X58531Y49642D01*
X57784Y45574D02*
Y48895D01*
X53800Y46688D02*
Y53553D01*
Y46688D02*
X53847Y46641D01*
Y45574D02*
Y46641D01*
X56000Y22000D02*
Y22600D01*
X53847Y24752D02*
X56000Y22600D01*
X53847Y24752D02*
Y29826D01*
X49000Y22000D02*
X51879Y24879D01*
Y29826D01*
X31476Y37402D02*
X31567Y37311D01*
X35711D01*
X36000Y37022D01*
X23417Y36417D02*
X26358D01*
X22740Y35740D02*
X23417Y36417D01*
X22500Y41504D02*
X22975D01*
X24035Y40445D01*
X26268D01*
X26358Y40354D01*
X15260Y41260D02*
X18500Y44500D01*
X15260Y13858D02*
Y41260D01*
X64674Y42621D02*
X69520D01*
X69541Y42600D01*
X29322Y39400D02*
X42600D01*
X26449Y36508D02*
X28150D01*
X28736Y37094D01*
Y38814D01*
X29322Y39400D01*
X22740Y13858D02*
Y35740D01*
X42600Y39400D02*
X45284Y36716D01*
X26358Y36417D02*
X26449Y36508D01*
X48926Y34747D02*
Y36716D01*
X45284D02*
X48926D01*
Y40653D02*
Y42621D01*
D33*
Y40653D02*
D03*
Y42621D02*
D03*
Y36716D02*
D03*
Y34747D02*
D03*
Y38684D02*
D03*
Y32779D02*
D03*
X64674Y36716D02*
D03*
Y42621D02*
D03*
Y40653D02*
D03*
Y34747D02*
D03*
Y38684D02*
D03*
Y32779D02*
D03*
D34*
X55816Y45574D02*
D03*
X57784D02*
D03*
X51879D02*
D03*
X53847D02*
D03*
Y29826D02*
D03*
X55816D02*
D03*
X51879D02*
D03*
X61721Y45574D02*
D03*
X59753D02*
D03*
X57784Y29826D02*
D03*
X59753D02*
D03*
X61721D02*
D03*
D35*
X56800Y37700D02*
D03*
D36*
X79000Y25500D02*
D03*
X56000Y22000D02*
D03*
X49000D02*
D03*
X79000Y42500D02*
D03*
D37*
X73550Y58400D02*
D03*
X79850D02*
D03*
X73550Y51600D02*
D03*
X79850D02*
D03*
X73450Y65100D02*
D03*
X79750D02*
D03*
D38*
X69541Y42600D02*
D03*
X74659D02*
D03*
D39*
X26358Y51575D02*
D03*
Y27165D02*
D03*
D40*
Y48228D02*
D03*
Y46260D02*
D03*
Y44291D02*
D03*
Y42323D02*
D03*
Y40354D02*
D03*
Y38386D02*
D03*
Y36417D02*
D03*
Y34449D02*
D03*
Y32480D02*
D03*
Y30512D02*
D03*
X31476Y27559D02*
D03*
Y29528D02*
D03*
Y31496D02*
D03*
Y33465D02*
D03*
Y35433D02*
D03*
Y37402D02*
D03*
Y41339D02*
D03*
Y43307D02*
D03*
Y45276D02*
D03*
Y47244D02*
D03*
Y49213D02*
D03*
Y51181D02*
D03*
D41*
X22130Y71921D02*
D03*
X10713D02*
D03*
X109430Y7521D02*
D03*
X98013D02*
D03*
D42*
X19000Y6142D02*
D03*
X15260Y13858D02*
D03*
X22740D02*
D03*
D43*
X92772Y66050D02*
D03*
X89228Y59750D02*
D03*
X92772D02*
D03*
X89228Y66050D02*
D03*
D44*
X19362Y63000D02*
D03*
X14638D02*
D03*
D45*
X53800Y60246D02*
D03*
Y53553D02*
D03*
X60000Y60246D02*
D03*
Y53553D02*
D03*
D46*
X19000Y6142D02*
X26547D01*
X27279Y5409D01*
X27591D01*
X79000Y25500D02*
X79043Y25458D01*
X98457D01*
X98500Y25415D01*
X10713Y63000D02*
Y71921D01*
Y57818D02*
Y63000D01*
X14638D01*
X9272Y56378D02*
X10713Y57818D01*
X8760Y56378D02*
X9272D01*
X26358Y27165D02*
X26736Y26787D01*
Y23954D02*
Y26787D01*
Y23954D02*
X28328Y22362D01*
X29862D01*
X96000Y42600D02*
X98500Y45100D01*
X79000Y42600D02*
X96000D01*
X89228Y54372D02*
Y59750D01*
Y54372D02*
X98500Y45100D01*
X74659Y42600D02*
X79000D01*
X98013Y7521D02*
X98500Y8009D01*
Y25415D01*
D47*
X29125Y33465D02*
X31476D01*
X26449Y34358D02*
X28231D01*
X29125Y33465D01*
D48*
X8760Y22362D02*
D03*
Y56378D02*
D03*
D49*
X29862Y22362D02*
D03*
Y56378D02*
D03*
D50*
X98500Y25415D02*
D03*
D51*
Y45100D02*
D03*
D52*
X45591Y32409D02*
D03*
X61590Y25909D02*
D03*
X27591Y5409D02*
D03*
X69591Y64909D02*
D03*
X60091D02*
D03*
X53591D02*
D03*
X37000Y27500D02*
D03*
Y51000D02*
D03*
X22000Y51500D02*
D03*
D53*
X37404Y43904D02*
D03*
X44266Y41097D02*
D03*
X36000Y37022D02*
D03*
X21500Y38000D02*
D03*
X22500Y41504D02*
D03*
X18500Y44500D02*
D03*
M02*
