G04*
G04 #@! TF.GenerationSoftware,Altium Limited,Altium Designer,20.1.8 (145)*
G04*
G04 Layer_Color=8388736*
%FSLAX25Y25*%
%MOIN*%
G70*
G04*
G04 #@! TF.SameCoordinates,5D2BCBBB-68BA-462B-8042-098B58F1E690*
G04*
G04*
G04 #@! TF.FilePolarity,Negative*
G04*
G01*
G75*
%ADD16R,0.03950X0.01784*%
%ADD17R,0.01784X0.03950*%
%ADD18R,0.11430X0.11430*%
%ADD19C,0.04737*%
%ADD20R,0.03950X0.05721*%
%ADD21R,0.03162X0.03950*%
%ADD22R,0.03556X0.04737*%
%ADD23R,0.03556X0.01981*%
%ADD24R,0.09068X0.06509*%
%ADD25R,0.02769X0.04540*%
%ADD26R,0.02769X0.03950*%
%ADD27R,0.03950X0.04343*%
%ADD28R,0.04737X0.05131*%
%ADD29O,0.11036X0.05918*%
%ADD30O,0.09461X0.05131*%
%ADD31C,0.10249*%
%ADD32R,0.10249X0.10249*%
D16*
X48926Y40653D02*
D03*
Y42621D02*
D03*
Y36716D02*
D03*
Y34747D02*
D03*
Y38684D02*
D03*
Y32779D02*
D03*
X64674Y36716D02*
D03*
Y42621D02*
D03*
Y40653D02*
D03*
Y34747D02*
D03*
Y38684D02*
D03*
Y32779D02*
D03*
D17*
X55816Y45574D02*
D03*
X57784D02*
D03*
X51879D02*
D03*
X53847D02*
D03*
Y29826D02*
D03*
X55816D02*
D03*
X51879D02*
D03*
X61721Y45574D02*
D03*
X59753D02*
D03*
X57784Y29826D02*
D03*
X59753D02*
D03*
X61721D02*
D03*
D18*
X56800Y37700D02*
D03*
D19*
X79000Y25500D02*
D03*
X56000Y22000D02*
D03*
X49000D02*
D03*
X79000Y42500D02*
D03*
D20*
X73550Y58400D02*
D03*
X79850D02*
D03*
X73550Y51600D02*
D03*
X79850D02*
D03*
X73450Y65100D02*
D03*
X79750D02*
D03*
D21*
X69541Y42600D02*
D03*
X74659D02*
D03*
D22*
X26358Y51575D02*
D03*
Y27165D02*
D03*
D23*
Y48228D02*
D03*
Y46260D02*
D03*
Y44291D02*
D03*
Y42323D02*
D03*
Y40354D02*
D03*
Y38386D02*
D03*
Y36417D02*
D03*
Y34449D02*
D03*
Y32480D02*
D03*
Y30512D02*
D03*
X31476Y27559D02*
D03*
Y29528D02*
D03*
Y31496D02*
D03*
Y33465D02*
D03*
Y35433D02*
D03*
Y37402D02*
D03*
Y41339D02*
D03*
Y43307D02*
D03*
Y45276D02*
D03*
Y47244D02*
D03*
Y49213D02*
D03*
Y51181D02*
D03*
D24*
X22130Y71921D02*
D03*
X10713D02*
D03*
X109430Y7521D02*
D03*
X98013D02*
D03*
D25*
X19000Y6142D02*
D03*
X15260Y13858D02*
D03*
X22740D02*
D03*
D26*
X92772Y66050D02*
D03*
X89228Y59750D02*
D03*
X92772D02*
D03*
X89228Y66050D02*
D03*
D27*
X19362Y63000D02*
D03*
X14638D02*
D03*
D28*
X53800Y60246D02*
D03*
Y53553D02*
D03*
X60000Y60246D02*
D03*
Y53553D02*
D03*
D29*
X8760Y22362D02*
D03*
Y56378D02*
D03*
D30*
X29862Y22362D02*
D03*
Y56378D02*
D03*
D31*
X98500Y25415D02*
D03*
D32*
Y45100D02*
D03*
M02*
